<svg width="401" height="93" viewBox="0 0 401 93" fill="none" xmlns="http://www.w3.org/2000/svg">
<path d="M78.968 93H52.984L34.168 55.624L27.64 64.84V79.432C27.64 79.8587 27.6827 80.3707 27.768 80.968C27.8533 81.48 28.408 81.8213 29.432 81.992L37.24 83.016V93H0.12V83.016L7.032 82.12C7.288 82.0347 7.62933 81.9067 8.056 81.736C8.48267 81.5653 8.696 80.84 8.696 79.56V13.896C8.696 13.4693 8.65333 13 8.568 12.488C8.48267 11.8907 7.97067 11.5067 7.032 11.336L0.12 10.44V0.327995H36.728V10.44L29.432 11.464C29.0907 11.5493 28.7067 11.6773 28.28 11.848C27.8533 11.9333 27.64 12.616 27.64 13.896V45.64L52.472 11.464L45.304 10.44V0.327995H75.128V10.44L70.904 11.336C70.4773 11.4213 69.9653 11.592 69.368 11.848C68.7707 12.0187 68.1307 12.5733 67.448 13.512L48.504 40.136L68.728 79.304C68.8987 79.6453 69.1973 80.1147 69.624 80.712C70.0507 81.224 70.8613 81.5653 72.056 81.736L78.968 83.016V93ZM164.355 93H127.619V83.016L136.451 81.864L133.123 68.552H107.011L103.811 81.864L112.387 83.016V93H80.259V83.016L84.995 81.608C86.531 81.1813 87.427 80.3707 87.683 79.176L111.619 0.327995H133.123L156.675 79.432C156.76 79.688 156.931 80.0293 157.187 80.456C157.528 80.8827 158.211 81.2667 159.235 81.608L164.355 83.016V93ZM129.667 54.728L120.835 20.04H119.939L110.723 54.728H129.667ZM231.438 93H169.87V83.016L176.782 82.12C177.038 82.0347 177.379 81.9067 177.806 81.736C178.233 81.5653 178.446 80.84 178.446 79.56V13.896C178.446 13.4693 178.403 13 178.318 12.488C178.233 11.8907 177.721 11.5067 176.782 11.336L169.87 10.44V0.327995H208.142V10.44L199.182 11.464C198.841 11.464 198.457 11.5493 198.03 11.72C197.603 11.8907 197.39 12.616 197.39 13.896V79.304H214.542C214.798 79.304 215.097 79.2613 215.438 79.176C215.865 79.0907 216.121 78.664 216.206 77.896L217.998 65.096H231.438V93ZM274.802 93H240.37V83.016L247.282 82.12C247.538 82.0347 247.879 81.9067 248.306 81.736C248.733 81.5653 248.946 80.84 248.946 79.56V13.896C248.946 13.4693 248.903 13 248.818 12.488C248.733 11.8907 248.221 11.5067 247.282 11.336L240.37 10.44V0.327995H276.594C285.383 0.327995 292.637 1.90666 298.354 5.064C304.071 8.22133 308.423 13.0427 311.41 19.528C314.482 25.928 316.018 34.504 316.018 45.256C316.018 52.424 315.25 58.952 313.714 64.84C312.178 70.6427 309.746 75.6773 306.418 79.944C303.175 84.1253 298.909 87.368 293.618 89.672C288.327 91.8907 282.055 93 274.802 93ZM267.89 79.176H272.498C277.362 79.176 281.586 78.3227 285.17 76.616C288.754 74.9093 291.527 71.8373 293.49 67.4C295.538 62.8773 296.562 55.88 296.562 46.408C296.562 37.3627 295.751 30.664 294.13 26.312C292.509 21.8747 290.034 18.76 286.706 16.968C283.378 15.0907 278.855 14.152 273.138 14.152H267.89V79.176ZM400.605 93H363.869V83.016L372.701 81.864L369.373 68.552H343.261L340.061 81.864L348.637 83.016V93H316.509V83.016L321.245 81.608C322.781 81.1813 323.677 80.3707 323.933 79.176L347.869 0.327995H369.373L392.925 79.432C393.01 79.688 393.181 80.0293 393.437 80.456C393.778 80.8827 394.461 81.2667 395.485 81.608L400.605 83.016V93ZM365.917 54.728L357.085 20.04H356.189L346.973 54.728H365.917Z" fill="#594BCE"/>
</svg>
